<!-- Generated by IcoMoon.io -->
<svg version="1.1" xmlns="http://www.w3.org/2000/svg" width="32" height="32" viewBox="0 0 32 32">
<title>group-3</title>
<path fill="#afb1b8" d="M5.267 30.294c0.023 0.001 0.044 0.010 0.060 0.024l-0-0 0.155 0.148c-0.12 0.12-0.269 0.216-0.436 0.281-0.172 0.064-0.371 0.101-0.579 0.101-0.014 0-0.028-0-0.042-0.001l0.002 0c-0.009 0-0.020 0-0.031 0-0.198 0-0.387-0.035-0.563-0.098l0.012 0.004c-0.17-0.061-0.316-0.152-0.439-0.267l0.001 0.001c-0.12-0.113-0.215-0.25-0.28-0.403l-0.003-0.008c-0.063-0.152-0.099-0.328-0.099-0.512 0-0.005 0-0.010 0-0.016v0.001c-0-0.008-0-0.018-0-0.028 0-0.362 0.157-0.687 0.407-0.911l0.001-0.001c0.132-0.116 0.291-0.207 0.465-0.268 0.191-0.064 0.394-0.096 0.599-0.094 0.19-0.004 0.379 0.025 0.556 0.086 0.154 0.058 0.295 0.138 0.417 0.238l-0.13 0.158c-0.009 0.011-0.020 0.021-0.032 0.029l-0.001 0c-0.013 0.008-0.029 0.012-0.046 0.012-0.002 0-0.004-0-0.006-0h0c-0.021-0.001-0.040-0.007-0.057-0.017l0.001 0-0.070-0.042-0.097-0.054c-0.089-0.043-0.192-0.076-0.299-0.093l-0.007-0.001c-0.065-0.011-0.139-0.017-0.215-0.017-0.005 0-0.011 0-0.016 0h0.001c-0.006-0-0.012-0-0.019-0-0.147 0-0.289 0.026-0.42 0.074l0.008-0.003c-0.13 0.046-0.242 0.114-0.338 0.2l0.001-0.001c-0.093 0.087-0.167 0.193-0.217 0.311l-0.002 0.006c-0.050 0.118-0.079 0.255-0.079 0.398 0 0.007 0 0.014 0 0.021l-0-0.001c-0.002 0.145 0.025 0.288 0.079 0.425 0.047 0.116 0.12 0.223 0.215 0.315 0.089 0.085 0.197 0.152 0.316 0.193l0.006 0.002c0.127 0.046 0.262 0.068 0.399 0.067 0.079 0.001 0.158-0.003 0.237-0.013 0.197-0.021 0.373-0.099 0.513-0.218l-0.001 0.001c0.020-0.016 0.046-0.027 0.074-0.027h0zM9.745 29.549c0.002 0.179-0.033 0.356-0.105 0.524-0.063 0.152-0.163 0.291-0.292 0.407s-0.286 0.207-0.458 0.267c-0.38 0.126-0.799 0.126-1.179 0-0.176-0.063-0.328-0.154-0.457-0.269l0.001 0.001c-0.124-0.112-0.224-0.249-0.292-0.403l-0.003-0.008c-0.14-0.339-0.14-0.71 0-1.050 0.066-0.153 0.166-0.293 0.295-0.413 0.13-0.112 0.285-0.2 0.456-0.258 0.379-0.128 0.8-0.128 1.179 0 0.172 0.061 0.328 0.152 0.458 0.268 0.128 0.117 0.227 0.255 0.293 0.406 0.072 0.169 0.107 0.347 0.105 0.527zM9.338 29.549c0-0.007 0-0.014 0-0.022 0-0.144-0.027-0.281-0.077-0.407l0.003 0.008c-0.094-0.243-0.287-0.43-0.529-0.512l-0.006-0.002c-0.128-0.044-0.275-0.069-0.428-0.069s-0.301 0.025-0.438 0.072l0.010-0.003c-0.128 0.045-0.237 0.113-0.328 0.199l0-0c-0.091 0.086-0.162 0.191-0.207 0.309l-0.002 0.006c-0.047 0.125-0.074 0.27-0.074 0.421s0.027 0.296 0.077 0.43l-0.003-0.009c0.094 0.243 0.288 0.429 0.531 0.51l0.006 0.002c0.276 0.090 0.581 0.090 0.857 0 0.127-0.045 0.237-0.112 0.329-0.198l-0.001 0c0.089-0.087 0.159-0.192 0.205-0.309l0.002-0.006c0.047-0.118 0.074-0.256 0.074-0.399 0-0.008-0-0.015-0-0.023l0 0.001zM12.801 29.991l0.041 0.094c0.015-0.034 0.029-0.064 0.045-0.094 0.015-0.032 0.032-0.063 0.050-0.093l0.991-1.565c0.019-0.027 0.037-0.044 0.056-0.049s0.041-0.009 0.064-0.009c0.006 0 0.012 0 0.017 0.001l-0.001-0h0.293v2.545h-0.347v-1.95c-0.001-0.013-0.002-0.029-0.002-0.044s0.001-0.031 0.002-0.046l-0 0.002-0.997 1.587c-0.013 0.024-0.033 0.044-0.058 0.058s-0.055 0.021-0.085 0.021h-0.056c-0.030 0-0.060-0.007-0.085-0.021s-0.046-0.034-0.058-0.058l-1.026-1.597v2.043h-0.335v-2.54h0.293c0.004-0 0.009-0 0.014-0 0.024 0 0.047 0.003 0.069 0.009l-0.002-0c0.024 0.010 0.043 0.028 0.054 0.049l1.012 1.567c0.020 0.029 0.037 0.059 0.050 0.091zM16.529 29.864v0.953h-0.388v-2.542h0.865c0.163-0.003 0.326 0.016 0.483 0.056 0.13 0.032 0.244 0.087 0.344 0.16l-0.003-0.002c0.083 0.066 0.149 0.149 0.192 0.245l0.002 0.004c0.042 0.092 0.066 0.199 0.066 0.311 0 0.005-0 0.010-0 0.014v-0.001c0 0.003 0 0.006 0 0.009 0 0.115-0.027 0.223-0.074 0.32l0.002-0.004c-0.050 0.102-0.121 0.187-0.207 0.253l-0.002 0.001c-0.097 0.075-0.212 0.133-0.336 0.166l-0.007 0.002c-0.131 0.038-0.281 0.059-0.436 0.059-0.011 0-0.022-0-0.033-0l-0.467-0.007zM16.529 29.592h0.469c0.004 0 0.008 0 0.012 0 0.102 0 0.202-0.014 0.295-0.041l-0.008 0.002c0.083-0.024 0.155-0.062 0.218-0.111l-0.001 0.001c0.11-0.090 0.179-0.226 0.179-0.377 0-0.002 0-0.003-0-0.005v0c0.004-0.071-0.009-0.141-0.039-0.207s-0.076-0.125-0.136-0.174c-0.129-0.087-0.289-0.138-0.46-0.138-0.022 0-0.043 0.001-0.065 0.003l0.003-0h-0.469v1.048zM21.741 30.821h-0.306c-0.002 0-0.004 0-0.007 0-0.029 0-0.056-0.009-0.079-0.024l0 0c-0.021-0.015-0.038-0.035-0.050-0.058l-0-0.001-0.264-0.615h-1.324l-0.273 0.615c-0.011 0.023-0.028 0.043-0.049 0.057l-0 0c-0.023 0.016-0.052 0.025-0.082 0.025-0.002 0-0.003-0-0.005-0h-0.306l1.163-2.546h0.403l1.179 2.546zM19.821 29.876h1.093l-0.461-1.036c-0.030-0.065-0.060-0.145-0.084-0.227l-0.003-0.012-0.045 0.133c-0.014 0.040-0.029 0.078-0.043 0.108l-0.458 1.034zM23.416 28.288c0.023 0.011 0.042 0.026 0.058 0.045l0 0 1.697 1.919v-1.976h0.347v2.545h-0.194c-0.002 0-0.005 0-0.008 0-0.053 0-0.101-0.024-0.133-0.062l-0-0-1.695-1.917c0.001 0.013 0.002 0.029 0.002 0.044s-0.001 0.031-0.002 0.046l0-0.002v1.891h-0.347v-2.545h0.206c0.002-0 0.005-0 0.007-0 0.023 0 0.044 0.004 0.064 0.013l-0.001-0zM28.375 29.809v1.011h-0.388v-1.011l-1.072-1.533h0.347c0.003-0 0.006-0 0.009-0 0.027 0 0.053 0.008 0.074 0.023l-0-0c0.021 0.016 0.038 0.035 0.051 0.056l0.001 0.001 0.671 0.989c0.027 0.042 0.050 0.081 0.070 0.118s0.035 0.072 0.049 0.108l0.050-0.11c0.021-0.045 0.043-0.083 0.068-0.119l-0.002 0.003 0.661-0.996c0.015-0.020 0.031-0.038 0.050-0.054l0-0c0.021-0.016 0.048-0.025 0.076-0.025 0.002 0 0.005 0 0.007 0h0.351l-1.074 1.54zM12.609 24.004c0.169 0.019 0.339 0.034 0.512 0.047 2.616-1.017 4.829-2.681 6.363-4.785s2.319-4.553 2.259-7.043l-2.883-2.505c0.586 2.651 0.312 5.39-0.792 7.913s-2.994 4.729-5.459 6.372z"></path>
<path fill="#afb1b8" d="M11.579 23.888l0.078 0.013c2.634-1.637 4.642-3.923 5.765-6.562s1.308-5.51 0.533-8.242l-4.106-3.568c1.661 2.933 2.33 6.215 1.928 9.464s-1.857 6.334-4.196 8.893zM25.506 15.165c-0.698 2.735-2.392 5.202-4.832 7.035-0.666 0.507-1.418 0.983-2.21 1.392l-0.086 0.040c1.986-0.507 3.812-1.404 5.337-2.621s2.707-2.723 3.456-4.4l-1.665-1.445z"></path>
<path fill="#afb1b8" d="M24.853 14.763l-2.371-2.060c-0.045 2.349-0.814 4.644-2.226 6.648s-3.416 3.642-5.803 4.745h0.012c0.532 0 1.064-0.028 1.592-0.083 2.231-0.791 4.202-2.050 5.737-3.664s2.586-3.533 3.060-5.586zM11.923 4.026l-2.829-2.461c-2.529 0.849-4.704 2.342-6.24 4.282s-2.362 4.239-2.37 6.595c0.009 2.603 1.018 5.128 2.865 7.177s4.429 3.504 7.335 4.135c2.594-2.746 4.113-6.14 4.336-9.688s-0.862-7.065-3.097-10.040zM31.388 14.384c-0.010-3.088-1.427-6.047-3.94-8.23s-5.919-3.414-9.473-3.423c-0.008 0-0.017-0-0.026-0-1.709 0-3.352 0.284-4.883 0.809l0.106-0.032 17.32 15.048c0.593-1.33 0.897-2.744 0.896-4.171z"></path>
</svg>
