<!-- Generated by IcoMoon.io -->
<svg version="1.1" xmlns="http://www.w3.org/2000/svg" width="32" height="32" viewBox="0 0 32 32">
<title>Object-1</title>
<path fill="#afb1b8" d="M16.145 15.628c-0.13-0.168-0.208-0.381-0.208-0.612 0-0.023 0.001-0.046 0.002-0.068l-0 0.003v-0.982c0-0.301 0.068-0.53 0.205-0.686s0.371-0.234 0.703-0.234c0.312 0 0.534 0.067 0.665 0.2 0.143 0.17 0.213 0.378 0.197 0.587v0.231h-0.559v-0.234c0-0.010 0-0.021 0-0.033 0-0.069-0.006-0.137-0.017-0.203l0.001 0.007c-0.009-0.055-0.038-0.103-0.080-0.136l-0-0c-0.050-0.034-0.112-0.054-0.178-0.054-0.008 0-0.017 0-0.025 0.001l0.001-0c-0.007-0.001-0.016-0.001-0.024-0.001-0.070 0-0.136 0.021-0.19 0.058l0.001-0.001c-0.046 0.037-0.079 0.089-0.093 0.148l-0 0.002c-0.016 0.080-0.023 0.161-0.022 0.243v1.191c-0.001 0.013-0.002 0.029-0.002 0.045 0 0.106 0.027 0.206 0.075 0.293l-0.002-0.003c0.028 0.035 0.066 0.063 0.111 0.081s0.095 0.024 0.144 0.019c0.007 0.001 0.016 0.001 0.024 0.001 0.065 0 0.125-0.021 0.175-0.056l-0.001 0.001c0.043-0.036 0.073-0.086 0.083-0.144l0-0.001c0.013-0.079 0.019-0.159 0.017-0.239v-0.242h0.559v0.221c0.001 0.018 0.002 0.038 0.002 0.059 0 0.212-0.073 0.407-0.196 0.56l0.001-0.002c-0.128 0.146-0.347 0.219-0.668 0.219s-0.564-0.078-0.702-0.24zM18.47 15.638c-0.141-0.153-0.212-0.375-0.212-0.67v-1.032c0-0.292 0.071-0.512 0.212-0.662s0.377-0.224 0.708-0.224c0.328 0 0.563 0.075 0.704 0.224s0.213 0.37 0.213 0.662v1.032c0 0.292-0.072 0.515-0.215 0.669s-0.377 0.231-0.702 0.231c-0.325 0-0.566-0.078-0.708-0.23zM19.438 15.391c0.043-0.078 0.068-0.171 0.068-0.27 0-0.013-0-0.026-0.001-0.038l0 0.002v-1.264c0.001-0.010 0.001-0.021 0.001-0.033 0-0.098-0.025-0.19-0.068-0.27l0.001 0.003c-0.028-0.036-0.068-0.065-0.114-0.082s-0.097-0.024-0.147-0.018c-0.050-0.006-0.101 0-0.148 0.018s-0.086 0.046-0.115 0.082c-0.043 0.076-0.068 0.167-0.068 0.264 0 0.013 0 0.025 0.001 0.038l-0-0.002v1.27c-0.001 0.011-0.001 0.023-0.001 0.036 0 0.099 0.025 0.192 0.070 0.273l-0.002-0.003c0.065 0.064 0.155 0.103 0.253 0.103 0.003 0 0.006-0 0.009-0h-0c0.049 0 0.098-0.009 0.144-0.027s0.085-0.043 0.118-0.076v-0.006zM20.767 13.080h0.601l0.452 1.905 0.463-1.905h0.585l0.059 2.749h-0.433l-0.046-1.911-0.446 1.911h-0.347l-0.463-1.918-0.043 1.918h-0.437l0.054-2.749zM23.602 13.080h0.937c0.54 0 0.81 0.26 0.81 0.781 0 0.499-0.284 0.747-0.852 0.747h-0.319v1.222h-0.578l0.003-2.749zM24.402 14.255c0.057 0.006 0.115 0.002 0.17-0.013s0.105-0.040 0.148-0.074c0.053-0.072 0.086-0.163 0.086-0.262 0-0.017-0.001-0.034-0.003-0.050l0 0.002c0-0.009 0.001-0.021 0.001-0.032 0-0.078-0.010-0.153-0.030-0.224l0.001 0.006c-0.008-0.027-0.023-0.053-0.043-0.075s-0.045-0.041-0.073-0.055c-0.068-0.028-0.146-0.045-0.229-0.045-0.010 0-0.020 0-0.031 0.001l0.001-0h-0.224v0.822h0.224zM26.182 13.080h0.621l0.637 2.749h-0.539l-0.126-0.634h-0.554l-0.13 0.634h-0.547l0.637-2.749zM26.713 14.877l-0.216-1.154-0.216 1.154h0.433zM27.955 13.080h0.405l0.775 1.568v-1.568h0.48v2.749h-0.385l-0.779-1.637v1.637h-0.496l0.001-2.749zM30.739 14.782l-0.644-1.697h0.542l0.393 1.090 0.369-1.090h0.531l-0.636 1.697v1.048h-0.555v-1.048zM17.038 17.032v0.144h-0.472v1.117h-0.198v-1.117h-0.474v-0.144h1.144zM18.517 18.293h-0.153c-0.001 0-0.003 0-0.005 0-0.014 0-0.028-0.005-0.038-0.012l0 0c-0.011-0.007-0.020-0.017-0.025-0.029l-0-0-0.136-0.3h-0.655l-0.136 0.3c-0.004 0.013-0.012 0.025-0.021 0.034l-0 0c-0.011 0.008-0.025 0.012-0.039 0.012-0.001 0-0.003-0-0.004-0h-0.153l0.578-1.261h0.201l0.585 1.256zM17.559 17.825h0.546l-0.231-0.513c-0.014-0.032-0.029-0.071-0.041-0.112l-0.002-0.007-0.022 0.067-0.021 0.053-0.229 0.512zM19.514 18.169c0.016 0.001 0.035 0.002 0.055 0.002s0.038-0.001 0.057-0.002l-0.003 0c0.065-0.006 0.125-0.020 0.181-0.040l-0.005 0.002 0.077-0.031v-0.284h-0.231c-0.006 0-0.011 0-0.017-0.002s-0.010-0.004-0.014-0.008c-0.004-0.003-0.007-0.006-0.009-0.010s-0.003-0.008-0.003-0.013v-0.097h0.449v0.483c-0.070 0.045-0.151 0.081-0.239 0.102l-0.005 0.001c-0.041 0.011-0.090 0.020-0.141 0.026l-0.004 0c-0.050 0.005-0.109 0.008-0.169 0.008h-0c-0.003 0-0.007 0-0.010 0-0.101 0-0.197-0.017-0.287-0.049l0.006 0.002c-0.089-0.031-0.166-0.076-0.232-0.133l0.001 0.001c-0.062-0.055-0.112-0.121-0.147-0.196l-0.002-0.004c-0.034-0.074-0.053-0.161-0.053-0.252 0-0.003 0-0.007 0-0.010v0c-0-0.008-0.001-0.017-0.001-0.026 0-0.175 0.078-0.331 0.201-0.437l0.001-0.001c0.065-0.056 0.142-0.101 0.226-0.13l0.005-0.001c0.090-0.030 0.193-0.047 0.3-0.047 0.003 0 0.007 0 0.011 0h-0.001c0.054 0 0.108 0.004 0.161 0.011 0.095 0.014 0.18 0.043 0.258 0.084l-0.004-0.002c0.035 0.020 0.069 0.042 0.101 0.066l-0.056 0.078c-0.004 0.007-0.011 0.013-0.019 0.017s-0.017 0.007-0.026 0.007c-0.013-0-0.026-0.004-0.036-0.010l0 0c-0.024-0.011-0.043-0.021-0.061-0.032l0.004 0.002c-0.053-0.029-0.114-0.051-0.18-0.062l-0.003-0c-0.042-0.007-0.091-0.011-0.14-0.011-0.002 0-0.005 0-0.007 0h0c-0.003-0-0.006-0-0.009-0-0.077 0-0.15 0.013-0.219 0.036l0.005-0.001c-0.128 0.040-0.228 0.134-0.277 0.254l-0.001 0.003c-0.025 0.062-0.039 0.134-0.039 0.21s0.014 0.148 0.040 0.214l-0.001-0.004c0.058 0.12 0.158 0.213 0.282 0.258l0.003 0.001c0.074 0.022 0.151 0.030 0.229 0.025zM21.357 18.149h0.631v0.144h-0.825v-1.261h0.198l-0.005 1.117zM22.645 18.293h-0.198v-1.261h0.198v1.261zM23.381 17.038c0.012 0.006 0.022 0.014 0.030 0.023l0 0 0.845 0.951c-0-0.007-0.001-0.015-0.001-0.023s0-0.016 0.001-0.024l-0 0.001v-0.94h0.172v1.266h-0.099c-0.002 0-0.005 0-0.007 0-0.013 0-0.025-0.003-0.036-0.008l0.001 0c-0.012-0.006-0.023-0.014-0.031-0.024l-0-0-0.844-0.95v0.981h-0.165v-1.261h0.103c0.011 0 0.022 0.002 0.032 0.006zM25.885 17.032v0.139h-0.701v0.416h0.568v0.134h-0.568v0.43h0.701v0.139h-0.904v-1.258h0.904zM5.161 9.244l8.781 2.153v7.543l-8.781-2.152v-7.544zM4.598 8.601v8.554l9.907 2.429v-8.553l-9.907-2.43z"></path>
<path fill="#afb1b8" d="M9.908 23.555l-9.908-2.431v-8.553l9.908 2.43v8.554z"></path>
<path fill="#afb1b8" d="M4.762 9.148l8.667 2.126-3.686 3.183-8.668-2.127 3.687-3.182zM4.598 8.601l-4.598 3.97 9.908 2.43 4.597-3.97-9.907-2.43zM10.465 23.074l4.040-3.488-4.040-0.991v4.48z"></path>
</svg>
